{
  "accessors": [
    {
      "bufferView": 2,
      "componentType": 5126,
      "count": 144,
      "max": [
        8.3370981216430664,
        3.7727169990539551,
        13.453939437866211
      ],
      "min": [
        7.2030105590820312,
        0.01360700000077486,
        9.6948299407958984
      ],
      "type": "VEC3"
    },
    {
      "bufferView": 2,
      "byteOffset": 1728,
      "componentType": 5126,
      "count": 144,
      "max": [
        0.99377226829528809,
        1,
        1
      ],
      "min": [
        -1,
        -1,
        -1
      ],
      "type": "VEC3"
    },
    {
      "bufferView": 3,
      "componentType": 5126,
      "count": 144,
      "max": [
        0.99800640344619751,
        0.42789342999458313,
        0.99996942281723022,
        -1
      ],
      "min": [
        -0.9984205961227417,
        -0.48818671703338623,
        -1,
        -1
      ],
      "type": "VEC4"
    },
    {
      "bufferView": 1,
      "componentType": 5126,
      "count": 144,
      "max": [
        0.469317227602005,
        0.24553456902503967
      ],
      "min": [
        0.020630612969398499,
        0.013289034366607666
      ],
      "type": "VEC2"
    },
    {
      "bufferView": 0,
      "componentType": 5125,
      "count": 420,
      "max": [
        143
      ],
      "min": [
        0
      ],
      "type": "SCALAR"
    },
    {
      "bufferView": 2,
      "byteOffset": 3456,
      "componentType": 5126,
      "count": 144,
      "max": [
        8.3370981216430664,
        3.7727169990539551,
        -6.6982212066650391
      ],
      "min": [
        7.2030115127563477,
        0.01360700000077486,
        -10.457330703735352
      ],
      "type": "VEC3"
    },
    {
      "bufferView": 2,
      "byteOffset": 5184,
      "componentType": 5126,
      "count": 144,
      "max": [
        0.99377250671386719,
        1,
        1
      ],
      "min": [
        -1,
        -1,
        -1
      ],
      "type": "VEC3"
    },
    {
      "bufferView": 3,
      "byteOffset": 2304,
      "componentType": 5126,
      "count": 144,
      "max": [
        0.99800640344619751,
        0.42789378762245178,
        0.99996942281723022,
        -1
      ],
      "min": [
        -0.9984205961227417,
        -0.48818695545196533,
        -1,
        -1
      ],
      "type": "VEC4"
    },
    {
      "bufferView": 1,
      "byteOffset": 1152,
      "componentType": 5126,
      "count": 144,
      "max": [
        0.469317227602005,
        0.24553456902503967
      ],
      "min": [
        0.020630612969398499,
        0.013289034366607666
      ],
      "type": "VEC2"
    },
    {
      "bufferView": 0,
      "byteOffset": 1680,
      "componentType": 5125,
      "count": 420,
      "max": [
        143
      ],
      "min": [
        0
      ],
      "type": "SCALAR"
    },
    {
      "bufferView": 2,
      "byteOffset": 6912,
      "componentType": 5126,
      "count": 144,
      "max": [
        8.3370981216430664,
        3.7727169990539551,
        13.453939437866211
      ],
      "min": [
        7.2030105590820312,
        0.01360700000077486,
        9.6948299407958984
      ],
      "type": "VEC3"
    },
    {
      "bufferView": 2,
      "byteOffset": 8640,
      "componentType": 5126,
      "count": 144,
      "max": [
        0.99377226829528809,
        1,
        1
      ],
      "min": [
        -1,
        -1,
        -1
      ],
      "type": "VEC3"
    },
    {
      "bufferView": 3,
      "byteOffset": 4608,
      "componentType": 5126,
      "count": 144,
      "max": [
        0.99800640344619751,
        0.42789342999458313,
        0.99996942281723022,
        -1
      ],
      "min": [
        -0.9984205961227417,
        -0.48818671703338623,
        -1,
        -1
      ],
      "type": "VEC4"
    },
    {
      "bufferView": 1,
      "byteOffset": 2304,
      "componentType": 5126,
      "count": 144,
      "max": [
        0.469317227602005,
        0.24553456902503967
      ],
      "min": [
        0.020630612969398499,
        0.013289034366607666
      ],
      "type": "VEC2"
    },
    {
      "bufferView": 0,
      "byteOffset": 3360,
      "componentType": 5125,
      "count": 420,
      "max": [
        143
      ],
      "min": [
        0
      ],
      "type": "SCALAR"
    },
    {
      "bufferView": 2,
      "byteOffset": 10368,
      "componentType": 5126,
      "count": 144,
      "max": [
        8.3370981216430664,
        3.7727169990539551,
        -6.6982212066650391
      ],
      "min": [
        7.2030115127563477,
        0.01360700000077486,
        -10.457330703735352
      ],
      "type": "VEC3"
    },
    {
      "bufferView": 2,
      "byteOffset": 12096,
      "componentType": 5126,
      "count": 144,
      "max": [
        0.99377250671386719,
        1,
        1
      ],
      "min": [
        -1,
        -1,
        -1
      ],
      "type": "VEC3"
    },
    {
      "bufferView": 3,
      "byteOffset": 6912,
      "componentType": 5126,
      "count": 144,
      "max": [
        0.99800640344619751,
        0.42789378762245178,
        0.99996942281723022,
        -1
      ],
      "min": [
        -0.9984205961227417,
        -0.48818695545196533,
        -1,
        -1
      ],
      "type": "VEC4"
    },
    {
      "bufferView": 1,
      "byteOffset": 3456,
      "componentType": 5126,
      "count": 144,
      "max": [
        0.469317227602005,
        0.24553456902503967
      ],
      "min": [
        0.020630612969398499,
        0.013289034366607666
      ],
      "type": "VEC2"
    },
    {
      "bufferView": 0,
      "byteOffset": 5040,
      "componentType": 5125,
      "count": 420,
      "max": [
        143
      ],
      "min": [
        0
      ],
      "type": "SCALAR"
    },
    {
      "bufferView": 2,
      "byteOffset": 13824,
      "componentType": 5126,
      "count": 494,
      "max": [
        8.2003993988037109,
        21.769712448120117,
        16.94700813293457
      ],
      "min": [
        -8.2003993988037109,
        1.2360340356826782,
        -16.802833557128906
      ],
      "type": "VEC3"
    },
    {
      "bufferView": 2,
      "byteOffset": 19752,
      "componentType": 5126,
      "count": 494,
      "max": [
        1,
        0.99993127584457397,
        1
      ],
      "min": [
        -1,
        -1,
        -1
      ],
      "type": "VEC3"
    },
    {
      "bufferView": 3,
      "byteOffset": 9216,
      "componentType": 5126,
      "count": 494,
      "max": [
        0.9999956488609314,
        0.99746161699295044,
        1,
        1
      ],
      "min": [
        -0.99999552965164185,
        -0.99996119737625122,
        -0.99996340274810791,
        -1
      ],
      "type": "VEC4"
    },
    {
      "bufferView": 1,
      "byteOffset": 4608,
      "componentType": 5126,
      "count": 494,
      "max": [
        0.99134373664855957,
        0.99150645732879639
      ],
      "min": [
        0.0099445581436157227,
        0.26212555170059204
      ],
      "type": "VEC2"
    },
    {
      "bufferView": 0,
      "byteOffset": 6720,
      "componentType": 5125,
      "count": 1752,
      "max": [
        493
      ],
      "min": [
        0
      ],
      "type": "SCALAR"
    }
  ],
  "asset": {
    "extras": {
      "author": "VijayKumar (https://sketchfab.com/VijayKumar)",
      "license": "CC-BY-4.0 (http://creativecommons.org/licenses/by/4.0/)",
      "source": "https://sketchfab.com/models/39e900ebb63745d6871e8816c5f6b804",
      "title": "Toon Bus"
    },
    "generator": "Sketchfab-3.18.7",
    "version": "2.0"
  },
  "bufferViews": [
    {
      "buffer": 0,
      "byteLength": 13728,
      "byteOffset": 0,
      "name": "floatBufferViews",
      "target": 34963
    },
    {
      "buffer": 0,
      "byteLength": 8560,
      "byteOffset": 13728,
      "byteStride": 8,
      "name": "floatBufferViews",
      "target": 34962
    },
    {
      "buffer": 0,
      "byteLength": 25680,
      "byteOffset": 22288,
      "byteStride": 12,
      "name": "floatBufferViews",
      "target": 34962
    },
    {
      "buffer": 0,
      "byteLength": 17120,
      "byteOffset": 47968,
      "byteStride": 16,
      "name": "floatBufferViews",
      "target": 34962
    }
  ],
  "buffers": [
    {
      "byteLength": 65088,
      "uri": "scene.bin"
    }
  ],
  "images": [
    {
      "uri": "textures/Bus1_baseColor.jpeg"
    }
  ],
  "materials": [
    {
      "doubleSided": true,
      "emissiveFactor": [
        0,
        0,
        0
      ],
      "name": "Bus1",
      "pbrMetallicRoughness": {
        "baseColorFactor": [
          1,
          1,
          1,
          1
        ],
        "baseColorTexture": {
          "index": 0,
          "texCoord": 0
        },
        "metallicFactor": 0,
        "roughnessFactor": 0.59999999999999998
      }
    }
  ],
  "meshes": [
    {
      "name": "Wheel1_Bus1_0",
      "primitives": [
        {
          "attributes": {
            "NORMAL": 1,
            "POSITION": 0,
            "TANGENT": 2,
            "TEXCOORD_0": 3
          },
          "indices": 4,
          "material": 0,
          "mode": 4
        }
      ]
    },
    {
      "name": "Wheel2_Bus1_0",
      "primitives": [
        {
          "attributes": {
            "NORMAL": 6,
            "POSITION": 5,
            "TANGENT": 7,
            "TEXCOORD_0": 8
          },
          "indices": 9,
          "material": 0,
          "mode": 4
        }
      ]
    },
    {
      "name": "Wheel3_Bus1_0",
      "primitives": [
        {
          "attributes": {
            "NORMAL": 11,
            "POSITION": 10,
            "TANGENT": 12,
            "TEXCOORD_0": 13
          },
          "indices": 14,
          "material": 0,
          "mode": 4
        }
      ]
    },
    {
      "name": "Wheel4_Bus1_0",
      "primitives": [
        {
          "attributes": {
            "NORMAL": 16,
            "POSITION": 15,
            "TANGENT": 17,
            "TEXCOORD_0": 18
          },
          "indices": 19,
          "material": 0,
          "mode": 4
        }
      ]
    },
    {
      "name": "Body_Bus1_0",
      "primitives": [
        {
          "attributes": {
            "NORMAL": 21,
            "POSITION": 20,
            "TANGENT": 22,
            "TEXCOORD_0": 23
          },
          "indices": 24,
          "material": 0,
          "mode": 4
        }
      ]
    }
  ],
  "nodes": [
    {
      "children": [
        1
      ],
      "name": "RootNode (gltf orientation matrix)",
      "rotation": [
        -0.70710678118654746,
        -0,
        -0,
        0.70710678118654757
      ]
    },
    {
      "children": [
        2
      ],
      "name": "RootNode (model correction matrix)"
    },
    {
      "children": [
        3
      ],
      "matrix": [
        1,
        0,
        0,
        0,
        0,
        0,
        1,
        0,
        0,
        -1,
        0,
        0,
        0,
        0,
        0,
        1
      ],
      "name": "Toon_Bus.fbx"
    },
    {
      "children": [
        4,
        9,
        14
      ],
      "name": "RootNode"
    },
    {
      "children": [
        5,
        7
      ],
      "name": "polySurface1"
    },
    {
      "children": [
        6
      ],
      "name": "Wheel1"
    },
    {
      "mesh": 0,
      "name": "Wheel1_Bus1_0"
    },
    {
      "children": [
        8
      ],
      "name": "Wheel2"
    },
    {
      "mesh": 1,
      "name": "Wheel2_Bus1_0"
    },
    {
      "children": [
        10,
        12
      ],
      "matrix": [
        -1,
        -0,
        -0,
        -0,
        -0,
        1,
        1.2246467991473532e-16,
        -0,
        -0,
        -1.2246467991473532e-16,
        1,
        -0,
        0,
        0,
        0,
        1
      ],
      "name": "polySurface2"
    },
    {
      "children": [
        11
      ],
      "name": "Wheel3"
    },
    {
      "mesh": 2,
      "name": "Wheel3_Bus1_0"
    },
    {
      "children": [
        13
      ],
      "name": "Wheel4"
    },
    {
      "mesh": 3,
      "name": "Wheel4_Bus1_0"
    },
    {
      "children": [
        15
      ],
      "name": "Body"
    },
    {
      "mesh": 4,
      "name": "Body_Bus1_0"
    }
  ],
  "samplers": [
    {
      "magFilter": 9729,
      "minFilter": 9987,
      "wrapS": 10497,
      "wrapT": 10497
    }
  ],
  "scene": 0,
  "scenes": [
    {
      "name": "OSG_Scene",
      "nodes": [
        0
      ]
    }
  ],
  "textures": [
    {
      "sampler": 0,
      "source": 0
    }
  ]
}

